<svg version="1" xmlns="http://www.w3.org/2000/svg" width="413.333" height="413.333" viewBox="0 0 310.000000 310.000000"><path d="M0 155v155h310V0H0v155zm42.5-78.7c1.7 1.3 1.8 4.9 2.3 72.4.4 53.2.2 71.5-.7 73.1-1 2-2 2.2-8.4 2.2-4.4 0-7.8-.5-8.5-1.2-.9-.9-1.2-18.5-1.2-72.9 0-63.9.2-71.9 1.6-73.3 2-2 12.2-2.2 14.9-.3zm87.3.9c.8.7 1.2 4 1.2 9.8 0 5.8-.4 9.1-1.2 9.8-.8.5-11.2 1.3-23.8 1.7-14.8.5-22.8 1.1-23.2 1.9-1.2 1.7-.9 30.5.2 32.7 1 1.8 2.3 1.9 20.5 1.9 16.3 0 19.6.3 20.9 1.6 2.3 2.3 2.3 18.6-.1 20.5-1.2 1-6.7 1.5-21.2 1.9l-19.6.5v40l23 .5 22.9.5 1.4 2.5c1.8 3.5 1.2 18.7-.8 20-.9.6-14.8 1-32.6 1-25.2 0-31.4-.3-32.3-1.4-.8-1-1.1-20.4-.9-73.1.3-64.3.5-71.8 1.9-72.8 2.1-1.5 61.8-1 63.7.5zm76.2.7c.5 1.1 1 5.2 1 9.1 0 11.7 1.5 11-24.3 11-16 0-22.6.3-23.5 1.2-1.7 1.7-1.7 34.4.1 35.5.6.4 10.2 1 21.2 1.3l20 .5.6 8.5c.9 13.9 2.3 13-20.5 13-16.9 0-19.7.2-21.1 1.7-1.5 1.5-1.7 3.7-1.2 20.7.3 10.5.6 19.2.6 19.2.1.1 10.3.5 22.9.9 12.7.4 23.2 1.2 24 1.7.8.7 1.2 4.1 1.2 10.4 0 8.2-.2 9.5-1.9 10.4-2.5 1.3-61 1.3-63.1 0-1.3-.8-1.5-9.7-1.1-72.7.2-46 .7-72.2 1.3-73.1.8-.9 8.4-1.2 31.9-1.2 29.5 0 30.9.1 31.9 1.9zm75.8-.7c1.6 1.6 1.6 18 0 19.6-.9.9-7.4 1.2-23.3 1.2s-22.4.3-23.3 1.2c-1.7 1.7-1.7 33.9 0 35.6.9.9 6.9 1.2 20.9 1.2 13.7 0 20 .3 20.5 1.1 1.2 2 .7 17.9-.6 19.5-1 1.1-5 1.4-21 1.4-17.1 0-19.9.2-20.4 1.6-1.2 3.1-.7 38.9.6 40.2.9.9 7.4 1.2 23.3 1.2s22.4.3 23.3 1.2c1.7 1.7 1.6 18.2 0 19.6-.8.6-13.2 1.1-32.1 1.3-26.5.4-30.9.2-31.7-1.1-.6-.9-.9-28.5-.7-72.8.2-62.1.4-71.4 1.7-72.2 2.3-1.5 61.3-1.3 62.8.2z"/></svg>