<svg xmlns="http://www.w3.org/2000/svg" width="684" height="684" version="1" viewBox="0 0 513 513"><path d="M294 5c-.8 1.5-.8 2 .2 2 .8 0 .9.3.3.8-1.3.9-1.8 2.8-1.9 6.9 0 1.8-.3 3.3-.6 3.3s-1.1 1-1.9 2.1c-1.2 2-1.1 2.1.5 1.5 1.7-.7 1.7-.6 0 1.3-1 1.1-1.5 2.5-1.1 3 .3.6.2 1.1-.4 1.1-.5 0-.8.8-.7 1.7.2 1-.2 2.1-.8 2.5-.8.6-.6 1.1.4 1.8 1 .6 1.1 1 .3 1-.7 0-1.3.7-1.3 1.6 0 .8-.4 1.2-1 .9-.6-.4-.7.1-.3 1 .3 1 0 2.1-.8 2.6-1 .6-1 .9-.1.9.6 0 1.2.5 1.2 1.1 0 .5-.4.8-.9.5-.5-.3-1.1.3-1.4 1.4-.3 1.3-.1 1.8.6 1.3.7-.4.5.1-.3 1.2-.8 1-1.5 2.8-1.5 3.9-.1 1.2-.6 2-1.2 1.9-.6-.1-.9 1-.8 2.7.1 1.7-.1 3-.6 3s-.9 1.2-.9 2.6c0 1.4-.4 2.3-1 1.9-.6-.4-1 .6-1 2.3 0 1.6-.7 3.5-1.5 4.2-1.1.9-1.2 1.6-.5 2.6.8.9.7 1.5-.4 2.1-.9.5-1.7 2.5-1.8 4.5-.2 2-.6 3.4-1 3.1-.5-.2-.8.5-.8 1.7s-.4 1.9-.9 1.5c-.6-.3-.8.4-.6 1.5.2 1.1-.3 2.4-1.3 3-1.3.7-1.3.9-.3 1 1 0 .7.8-1 2.7-1.3 1.4-1.7 2.2-.9 1.8 1.3-.8 1.3-.7 0 1.1-.8 1-1.9 2.2-2.5 2.6-.6.5-.4.8.5.8 1.3 0 1.3.1 0 1-.8.5-1 1-.5 1 .6 0 .4.4-.3.9-1.2.7-1.9 2.7-2.1 5.9-.1.7-.5 1-1.1.7-.6-.3-1 .5-1 1.9 0 1.3-.5 2.6-1 2.8-.6.2-1.2 1.3-1.3 2.5 0 1.2-.5 1.9-.9 1.7-.4-.3-.8.4-.8 1.6 0 1.2-.4 1.8-1 1.5-.6-.3-.7.1-.4.9.3.9.1 1.6-.6 1.6-.6 0-.9.4-.5.9.3.5-.2 1.6-1 2.4-.8.9-1.5 2.3-1.5 3.1 0 .9-.5 1.6-1.1 1.6-.6 0-.9.6-.7 1.2.3.7-.1 1.9-.9 2.6-.7.8-1 1.8-.7 2.4.4.6.3.9-.2.6-.5-.3-1.8.6-2.8 2-1.1 1.4-1.4 2.2-.8 1.8 1.6-1 1.5.2-.2 1.9-.7.8-1.7 1.1-2.1.7-.5-.4-.5-.2-.1.5.3.6.2 1.4-.4 1.8-.6.4-.8 1-.5 1.5.3.4-.2 1-1 1.4-.8.3-1.5 1.2-1.5 2.1 0 .9-.9 1.5-2.6 1.5-1.4 0-2.3-.4-1.9-1 .3-.6-.1-1-1-1s-2.4-.8-3.3-1.8c-1-1-1.3-1.2-.8-.5.5.8.6 1.6.2 2-.3.3-.6.1-.6-.6 0-.8-.6-1.1-1.6-.7-1 .4-1.3.2-.8-.6.5-.7.2-.9-.7-.6-1.6.6-4.1-1.6-3.1-2.8.4-.4.2-.4-.5 0s-.9 1.4-.6 2.4c.4 1.2 0 1-1.5-.6-1.1-1.3-2.3-1.9-2.6-1.4-.3.6-2.6.9-5.1.7-2.5-.1-4.5.2-4.5.7 0 .5-.5.6-1 .3-.6-.4-.7-1.1-.4-1.7.5-.7.2-.8-.5-.4-.7.5-1 1.3-.8 2 .3.6-.5 1.1-1.8 1.1s-2.1-.3-1.9-.6c.1-.3-.3-.6-1-.6-.8 0-1.2.7-.8 1.5.4 1.1.1 1.3-.8.7-.8-.5-1.7-.3-2.4.6-.6.8-1.8 1.4-2.6 1.4s-1.4.6-1.2 1.3c.1.8-.2 1.1-.8.7-.5-.3-1-.1-1 .4 0 .6-.9 1.1-2.1 1.1-1.3 0-1.8.4-1.3 1.2.5.7.1.9-1.3.6-1.2-.3-2 0-2 .8 0 .7.5 1 1 .7.6-.3.2.6-.9 2-1 1.5-2.4 2.5-3.1 2.2-.7-.2-1 .4-.8 1.6.2 1.1.1 1.7-.4 1.5-.4-.3-1.3-.1-2.1.5-1.1.6-1.2.9-.2.9.7 0 1 .5.7 1-.4.6-1.2.8-1.8.4-.7-.3-.3.2.8 1.2 2 1.6 2 1.6-.2 1.1-2-.4-2.1-.3-1.2 1.5.9 1.6.7 2-1 2.5-1.2.3-2.1 1-2.1 1.5 0 .6.8.7 1.8.3 1.3-.5 1.4-.3.5.6-.6.6-.9 1.9-.5 2.8.5 1.4.4 1.4-1.1.2-1.6-1.3-1.7-1.2-.9 1 .5 1.3.8 3.4.6 4.7-.3 1.6 0 2.1.8 1.6.7-.4.8-.3.4.5-.4.6-1.1.9-1.6.6-.5-.3-1.2 0-1.6.6-.4.7-.3.9.3.6.6-.4 1.6 0 2.3.8 1 1.3.9 1.9-.6 3.6-1.5 1.6-1.5 1.9-.2 1.4 1.8-.7 1.9.9.4 3.4-.5.8-.5 1.2 0 .9.5-.3 1.5 0 2.2.8.7.8 1 1.4.6 1.4-.3 0 .1 1.1 1 2.5 1.5 2.3 1.5 2.5.1 2.5-.9 0-1.4-.4-1.1-.8.2-.4-.3-1.8-1.3-3-1.6-2.1-1.7-2.2-1.7-.3 0 1.1.5 1.9 1.1 1.8.5-.1 1 1 .9 2.5 0 2.2.3 2.5 1.3 1.6 1.8-1.5 6.4 2.7 5.6 5-.4.9-.2 1.3.4.9 1-.6 4.3 2.6 4.3 4.3 0 .6-.6.9-1.2.8-.7-.2-1.2.4-1 1.4.1.9-1.1 2.6-2.8 3.8-1.6 1.2-3 2.7-3 3.3-.1.7-1.9 2.5-4 4.2-2.2 1.6-4.2 3.8-4.6 4.9-.5 1.5-.8 1.6-1.5.5-.6-1-.9-1.1-.9-.2 0 1.5-3.6 5.3-4.9 5.3-.6 0-1.3.5-1.7 1.2-.5.7-.2.8.7.3 1-.5 1.1-.5.4.3-.5.6-1.6 1.2-2.4 1.4-.7.2-3.1 1.9-5.1 3.8-6.5 6.1-12.9 10.6-14.3 10.2-.5-.1-.6.2-.3.7.3.5-.2 1.5-1.1 2.2-1.4 1.2-1.6 1.2-.9-.1.4-.8-.3-.3-1.6 1.1-1.3 1.4-3 2.3-3.7 2.1-.8-.3-1.1 0-.8.5.3.5-.7 1.7-2.4 2.7-1.6.9-2.9 1.4-2.9 1.1 0-.3-.6 0-1.4.7-.8.7-1.1 1.7-.9 2.2.3.5 0 .7-.8.4-.7-.2-2.2.4-3.3 1.4-1.1 1-2.6 1.8-3.3 1.8-.8 0-1.2.4-.9.8.3.5-1.1 1.4-3 2.1-1.9.7-3.2 1.7-2.9 2.2.4.5-.3.9-1.4.9-2.8 0-5.2 1.1-4.5 2.1.5.8-.9 1.3-2.8 1-.5 0-.8.3-.8.8 0 1-4.3 2.8-4.7 2-.1-.2-.9.5-1.7 1.6-.9 1.1-1.6 1.5-1.6 1 0-.7-.3-.7-.8 0-.4.5-1.8 1.9-3.2 3-2.3 1.9-2.4 1.9-1 .1 1.5-1.9 1.5-1.9-1.7-.1-1.8 1-2.9 2.3-2.6 2.8.3.6.1.7-.5.3-.6-.3-1.3-.2-1.6.3-.4.5-2.5 1.2-4.7 1.6-2.9.5-3.8 1-2.8 1.6 1.2.7 1.1.9-.1 1-3.3.2-5.3.8-6 1.9-.4.7-.9 1.1-1.1.9-.2-.1-1.4.1-2.6.5-2.4.8-3.8 3.3-1.7 3.3.7 0 1.1-.4.8-.9-.3-.4 0-.8.5-.8.6 0 1.1.5 1.1 1.1 0 .8.4.8 1.3.1.8-.7 1.8-.7 2.7-.2.9.5 1.9.5 2.7-.2.9-.7 1.3-.7 1.3.2 0 1 .3 1 1.5 0s1.5-1 1.5.1c0 1.2.2 1.2.9 0 .6-1 1-1 1.6-.1.6.9 1 .9 1.6-.1.7-1.1.9-1.1.9-.1 0 .9.5 1 1.9.2 1.4-.7 2.2-.7 2.7.1.4.8.9.7 1.5-.2.5-.8.9-.9.9-.3 0 .9 3.1 1.1 5 .4 1.5-.6 3.6-.4 4.2.5.5.6 1.1.6 1.9-.2.6-.6 1.8-.9 2.7-.6 1.1.5 1.3.2.7-.6-.6-1-.3-1.1 1.2-.3 1.1.7 2.5.7 3.5.1 1.1-.6 1.9-.5 2.4.2.5.8.3.9-.6.4-.8-.5-1.1-.4-.7.3.9 1.4 5.8-.9 4.9-2.3-.3-.5.4-.2 1.5.8 1.3 1.1 2.3 1.4 2.7.8.4-.6 1.3-.8 2.1-.5.7.3 2.3.1 3.4-.6 1.6-.8 2.1-.8 2.1.2 0 .9.3.9 1-.2s1-1.2 1-.2.4 1 1.6-.2c2.1-2.1 3-2 1.3.1-1.3 1.5-1.2 1.5.7.5 1.2-.6 3.8-1.2 5.8-1.4 2-.1 3.6-.7 3.6-1.3 0-.5.5-.3 1 .5.9 1.3 1 1.3 1 0s.1-1.3 1 0c.6.9 1 1.1 1 .3 0-.7.7-1 1.5-.7.8.4 2.2.1 3-.6.8-.7 1.5-.9 1.5-.5s.8.1 1.7-.6c1.4-1.2 1.6-1.2.8 0-.6 1.1-.5 1.2.6.5.8-.4 1.9-.9 2.4-1.1 3.8-.8 7.3-1.5 8.8-1.6.9-.1 1.7-.5 1.7-1 0-.4.5-.5 1-.2.6.4 1.6.3 2.3-.2.7-.5 1.9-.9 2.7-.8.8.1 2.9-.4 4.7-1.1 1.7-.7 3.4-1 3.7-.6.3.3.6 0 .6-.7s.5-.9 1-.6c.6.4 1.7.1 2.5-.5s1.9-.9 2.4-.6c.5.4 1.3.1 1.6-.5.4-.5 1.4-.8 2.2-.5.8.3 1.2.2.9-.3-.7-1.1 2.2-2.3 3.5-1.5.5.3.9 0 .9-.7 0-.8.5-.8 1.8.2.9.7 1.4 1 1 .5-1.2-1.4 3.5-4.6 4.9-3.4.9.7 1.5.6 1.9-.6.3-.9 1-1.3 1.5-1 .5.3.9 0 .9-.7s.3-.9.7-.6c.3.4 1.5-.1 2.6-1 1.1-1 1.7-1.2 1.3-.6-.4.7-.3 1.3.2 1.3s1.2-1 1.5-2.2c.5-1.9.8-2 2.3-.7 1 .8 1.5.9 1.1.3-.6-1.1 1.4-2.6 3.6-2.8.4-.1 1.2-.8 1.7-1.6s1-1.1 1-.6c0 .5.7.3 1.5-.4s1.5-1 1.5-.6c0 .3.9-.3 2-1.4 1.2-1.2 2.4-1.8 2.9-1.6.4.3 1.9-.6 3.2-2 1.3-1.4 3.7-3.2 5.2-4 1.5-.8 2.5-1.9 2.2-2.4-.4-.6.1-.7 1.1-.3 1.2.4 1.5.3 1-.5-.6-1.1.5-1.6 2-1 .3.2 1.2-.9 2-2.5.8-1.5 2-2.7 2.7-2.8.7 0 3-2.1 5.2-4.5 2.2-2.5 5.2-5.9 6.8-7.4 1.5-1.6 2.7-3.4 2.7-3.9 0-.6.7-.7 1.7-.4 1 .4 1.4.2 1-.4-.6-.9 1.8-4.5 5.6-8.5.9-1 1.4-1.8 1-1.8-.5 0 .1-.7 1.1-1.5 1.1-.8 1.6-1.5 1.2-1.5-.4 0 .7-2 2.4-4.5s2.8-4.5 2.5-4.5c-.4 0 .1-.7.9-1.6.9-.8 1.4-2 1.1-2.5-.4-.5-.2-.9.4-.9.6 0 1.3-1.1 1.7-2.5.3-1.4 1-2.3 1.5-2 .4.3.6-.4.4-1.5-.2-1.1 0-2 .5-2 .4 0 1.1-.7 1.4-1.6.4-1 .2-1.3-.7-.9-.6.4-.4 0 .5-.8 1-.8 1.5-1.7 1.1-2-.3-.4 0-.7.7-.7s1-.3.7-.7c-.4-.3 0-1.7.9-3.1 1.2-1.8 1.2-2.3.3-1.7-.8.3-.5-.1.5-.9 1.2-.9 1.4-1.6.7-1.6-.9 0-.8-.5.3-1.6 1.9-1.9 2.1-2.8.4-1.8-1 .6-1 .4 0-.7.6-.7 1.2-2.1 1.2-3.1s.5-1.8 1.2-1.8c.6 0 .8-.3.5-.7-.4-.3-.1-1.3.6-2.1.9-1.3.9-1.4 0-.8-.7.4-1.3.3-1.3-.2 0-.6.7-1.2 1.5-1.6.9-.3 1.2-1.2.8-2.2-.3-.9 0-2 .8-2.5 1-.6 1-.9.2-.9-.7 0-1.3-.5-1.3-1.1 0-.5.5-.7 1.1-.3.7.4.9-.1.7-1.2-.3-1.1.2-3.2.9-4.7.8-1.6 1.2-3.5.9-4.3-.3-.8 0-1.4.7-1.5.7 0 .3-.4-.8-.9-1.8-.8-1.8-.9-.2-.9 1-.1 1.5-.6 1.2-1.1-.3-.6 0-1 .7-1 .9 0 .9-.3-.2-1-.8-.5-1-1-.3-1 .6 0 .9-.9.5-2.2-.4-1.6-.2-1.9.9-1.3 1.2.8 1.2.6 0-.8-.9-1.2-1-2.1-.4-3 .6-.6 1-2.5.9-4-.1-1.6.2-3.1.6-3.3.4-.3.5-2 .3-3.9-.3-2.4-.1-3.5.8-3.5.8 0 .7-.4-.3-1-1.3-.9-1.3-1 0-1s1.3-.1 0-1c-.9-.6-1.1-1.3-.5-1.8 1.3-.9 1.4-6.2.1-6.2-.5 0-.1-.7 1-1.6 1-.8 1.3-1.3.7-.9-.8.4-1.3 0-1.3-1s.5-1.3 1.3-.9c.9.6.9.4-.1-.8-.9-1.2-1-1.8-.2-2.3.8-.5.8-1.1.1-1.9-.6-.7-.8-1.6-.4-1.9.3-.4 0-1.3-.7-2.2-1-1.2-.9-1.6.4-2.1 1.4-.5 1.4-.9.4-2.2-1.1-1.2-1.1-1.6 0-2 1-.3.9-.9-.5-2.5-1.6-1.8-1.6-2-.1-1.4 1.5.5 1.6.2.8-1.9-1.3-3.3-1.3-3.7.3-2.8.8.6.8.3-.2-.9-.7-.9-1.1-2.3-.8-3.2.4-.8.2-1.7-.3-2-.7-.4-.6-1.3 0-2.6.8-1.4.7-1.9-.1-1.9-.8 0-.8-.4.1-1.5 1-1.2 1-1.5 0-1.5s-1-.3-.1-1.4c.8-1 .9-1.6.1-2.1-.5-.3-1-1.5-1-2.6s.4-1.7 1-1.4c.6.3.7-.1.4-.9-.3-.9-.9-1.4-1.3-1.2-.3.2-.6-.7-.6-2s.4-2.4.8-2.4.3-.9-.3-2-.8-2-.4-2c.3 0 0-.8-.7-1.7-.8-.9-.9-1.4-.3-1 .6.3 1.1 0 1.1-.8s-.4-1.2-.8-.9c-.4.2-.7-.5-.6-1.6.1-1.1.5-2 1-2s.1-.8-.9-1.7c-1.1-1.1-1.3-1.8-.5-2.1.7-.2.8-1 .2-2-.4-.9-.7-3.4-.7-5.5.1-2-.1-3.7-.5-3.7-.3 0-.6-1.2-.7-2.8 0-5.7-.2-6.3-1.4-5.6-.9.5-.9.2.1-.9.9-1.1 1-1.7.2-1.7-1.3 0-1-2.2.4-3.2.6-.5.3-.8-.7-.8-1.1 0-1.5-.6-1.1-2 .3-1.1-.1-2.8-.8-3.7-1-1.2-1-1.4-.1-.9.6.4 1.2.2 1.2-.3 0-.6-.4-1.1-1-1.1-.5 0-.7-.7-.3-1.6.3-.9 0-2-.8-2.5-1.2-.7-1.2-.9 0-.9 1.1 0 1-.4-.5-1.6-1-.8-1.3-1.3-.7-.9.9.4 1.1.1.7-.9-.8-2.1-1.1-2-2.4.4zm-61 264.4c0 .2-.8 1-1.7 1.7-1.6 1.3-1.7 1.2-.4-.4 1.3-1.6 2.1-2.1 2.1-1.3zM384.5 48c-.4.6-1.1.7-1.7.4-.7-.4-.8-.2-.4.4.4.7-.3 2.2-1.7 3.4-1.3 1.3-2.6 3.1-3 4-.3 1-1.3 1.8-2.2 1.8-.8 0-1.4.3-1.4.7.3 2-.2 3.4-1.1 2.8-.5-.3-1 0-1 .7 0 1.5-4.1 5.4-5.2 5-.4-.1-.5.5-.2 1.3.4 1 0 1.5-1.1 1.5-.9 0-1.4.4-1 .9.3.6-.3 1.4-1.2 2-1 .6-1.4 1.1-.9 1.1.5 0-.3 1.1-1.8 2.5s-2.4 2.5-2 2.5c.4 0-.3.9-1.6 2s-2 2-1.6 2c.4 0-.3 1-1.4 2.2-1.2 1.3-3.5 4.4-5.2 7-1.7 2.7-3.6 4.8-4.1 4.8-.6 0-.8.3-.4.6.3.3-.5 1.8-1.9 3.3-1.3 1.4-2.7 3.4-3 4.4-.3.9-1 1.4-1.6 1.1-.6-.4-.8-.2-.4.4.3.6-.1 1.7-.9 2.5-.8.9-1.5 2-1.5 2.6 0 .6-.5 1.1-1.2 1.1-.6 0-.9.3-.5.6.3.4-.1 1.3-.9 2.1s-1.1 2-.7 2.6c.4.7 0 .8-1.1.4-1-.4-1.5-.3-1.1.3.3.6.1 1-.6 1-.8 0-.7.5.2 1.7 1 1.1 1 1.4.2.9-1.2-.7-1.8.5-1.4 2.7.1.5-.3.6-.8.3s-1.5.2-2.2 1.1c-.8 1-.9 1.4-.2 1 .7-.5.6.4-.3 2.3-.9 1.6-2 3-2.5 3-.6 0-.7.4-.4 1 .3.5.2 1-.3 1-.6 0-1.3.7-1.6 1.6-.4 1-.2 1.3.7.9.6-.4.4 0-.5.8-1 .8-1.8 2-1.8 2.6 0 .7-.5.9-1.2.5s-1-.4-.6.1c.4.4.2 1.7-.4 2.9-.7 1.1-1.1 2.4-1 2.8.1.5-.2.8-.8.8-.5 0-.6.7-.3 1.7.4 1.1.3 1.4-.5.9-1.1-.6-1.7.5-1.3 2.6 0 .5-.4.8-1 .8-.5 0-.7.5-.4 1.1.4.6 0 1.6-.9 2.2-.9.7-1.7 2.7-1.9 4.4-.1 1.8-.8 3.5-1.6 3.8-.7.3-1.1 1.2-.8 1.9.3.8-.1 1.7-1 2-1.2.5-1.3.9-.3 2.1 1 1.2.9 1.5-.5 1.5-1 0-1.5.3-1.2.7.4.3 0 1.7-.9 3.1-.9 1.4-1.1 2.1-.4 1.7.8-.5 1.1-.3.8.6-.3.8-1 1.3-1.5 1.2-.6-.1-.9.9-.7 2.2.1 1.4-.2 2.5-.8 2.5-.6 0-.8.6-.5 1.4.3.8.3 1.7-.1 2-.3.4-.8 1.9-1 3.4-.2 1.5-.7 2.8-1.3 3-.5.2-.9 1.3-.9 2.5s-.4 2.9-1 3.7c-.6.9-.5 2 .3 2.9 1 1.2.9 1.4-.5.8-1.2-.4-1.5-.2-1.2.7.3.8 0 1.7-.5 2.1-.6.3-.8 1.2-.4 1.8 1.1 1.7 1.2 3.7.3 3.7-1.2 0-1.8 6-.7 6.7.6.3.2 1.2-.8 2-1.1.7-1.3 1.3-.7 1.3.7 0 1.2.5 1.2 1.1 0 .5-.4.8-.8.5-1.1-.6-.9 2.5.3 4.3.5 1 .4 1.2-.4.7-.9-.6-1.1.8-.9 5.3.2 3.4 0 6.1-.3 6.1-.4 0-.3 1.6.1 3.5.5 2.3.4 3.6-.4 3.9-.7.3-.7.5.2.5.6.1 1.2.6 1.2 1.2 0 .5-.5.7-1.2.3-.7-.5-.8-.3-.3.6.4.7.8 2.9.9 4.9.1 2 .6 4.2 1.1 5 .5 1 .4 1.6-.4 1.9-.9.3-.9.7 0 1.8s.8 1.4-.2 1.5c-.8 0-.5.4.6.9 1.2.5 1.4.9.6.9-1.1.1-1 .5.5 1.7 1 .8 1.3 1.3.7.9-.8-.4-1.3 0-1.3.9s.6 1.6 1.3 1.6c.8 0 .7.4-.3 1-1.2.8-1.2 1-.1 1 .8 0 1.1.7.8 2-.3 1.1-.1 2 .5 2s.8.7.5 1.5c-.4.8-.2 1.7.3 2 .6.4 1 1.9 1 3.5s.5 3.2 1.1 3.5c.6.4.8 1.3.5 2-.3.8 0 1.5.6 1.7 1 .4 1.3 1.4 2 6.5.1.7.5 1.3 1 1.3s.7.4.3.9c-.3.5 0 1.3.6 1.6.5.4.8 1.4.5 2.2-.3.8-.1 1.1.4.8.6-.3 1 .3 1 1.4 0 1.2.5 2.1 1 2.1.6 0 1 .7 1 1.5s.4 1.5.9 1.5c.6 0 .8.9.6 2-.2 1.3.2 2 1.1 2 .8 0 1.3.4 1 .9-.3.5.4 2 1.5 3.5 1.1 1.4 1.7 2.6 1.2 2.6-.4 0-.3.4.2.8.6.4 2.6 3.3 4.5 6.4 1.9 3.2 3.8 5.8 4.2 5.8.4 0 .8.7.8 1.5 0 .9.7 1.8 1.5 2.1.8.4 1.3 1 1 1.4-.3.4.2 1.1 1.1 1.4.9.4 1.4.9 1.1 1.2-.3.3.8 1.8 2.4 3.3 1.6 1.6 2.9 3.3 2.9 3.9 0 .6.9 1.4 2.1 1.7 1.2.4 1.8 1.2 1.5 2.1-.3.7-.2 1.3.2 1.2 1.1-.4 5.2 3.5 4.6 4.3-.2.4.5 1 1.6 1.4 1.1.3 2 1.2 2 2s.9 1.7 2 2c1.1.3 2 1.3 2 2.1s.8 1.8 1.8 2.1c.9.4 3.2 2.2 4.9 4 1.8 1.8 3.7 3.3 4.3 3.3.5 0 .9.5.7 1.2-.1.7.5 1.3 1.3 1.3s1.4.6 1.3 1.3c-.2.7.3 1.2 1.1 1.2s2.2 1 3 2.2c.9 1.2 1.6 1.8 1.6 1.3s.7 0 1.6 1.1c.8 1 1.2 1.2.8.4-.4-.8.4-.4 1.8 1 1.3 1.4 2.3 2.8 2 3.3-.2.4.1.6.6.5 1.2-.3 4.9 2 7.1 4.4.8 1 2.1 1.8 2.8 1.8.7 0 1.3.4 1.3 1 0 .5.7 1 1.6 1 .9 0 1.2.5.8 1.2-.4.6-.3.8.4.4.6-.3 2.1.4 3.4 1.6 1.3 1.3 3 2.4 3.8 2.6.7.2 2.1 1.1 2.9 2 .9.9 2.3 1.8 3.1 2 .8.2 2.3 1.2 3.3 2.4.9 1.1 1.7 1.5 1.7.8 0-.8.4-.8 1.4.2 4 3.8 5.6 4.8 7.7 4.8.5 0 .7.5.3 1.2-.4.6-.3.8.4.4.6-.3 1.7 0 2.5.8s1.7 1.2 2.1.9c.3-.4.6-.1.6.6s.5.9 1 .6c.6-.3 1-.1 1 .4 0 .6.7 1.1 1.6 1.1.8 0 1.2.5.9 1-.4.6-.3.9.2.8 1-.3 5.6 2.2 6.4 3.4.3.5.9 0 1.2-1.1.3-1.4 0-2.1-1-2.1-.8 0-1.1-.5-.8-1 .3-.6.1-1-.5-1s-.9-.4-.6-.9c.3-.5-.1-1.1-.9-1.5-.8-.3-2.3-2.1-3.2-4.1-.9-1.9-2-3.5-2.5-3.5-.4 0-.8-.7-.8-1.5s-.4-1.5-1-1.5c-.5 0-.6-.7-.3-1.7.4-1.1.3-1.4-.6-.9-.7.5-1.5-.3-2.2-2.3-.6-1.7-1.5-2.8-2-2.5-.5.3-.6-.2-.3-1 .3-.9.1-1.6-.5-1.6s-1.1-.9-1.1-2.1c0-1.1-.4-1.7-1-1.4-.9.6-1.4-.8-1.1-2.8 0-.4-.7-.7-1.6-.7-.9 0-1.3-.3-1-.7.4-.3 0-1.7-.8-3-.9-1.3-1.2-2.3-.9-2.3.4 0-.3-.9-1.6-2s-2-2-1.6-2c.4 0 .1-1-.6-2.2-.7-1.3-1.1-2.6-1-3.1.1-.4-.3-.7-.9-.7-.5 0-.7-.5-.4-1 .3-.6.1-1-.4-1-.6 0-1.1-.7-1.1-1.5s-.5-1.5-1.1-1.5c-.5 0-.7-.5-.4-1 .3-.6-.1-1.3-.9-1.6-.9-.3-1.3-1-1-1.6.3-.5-.2-1.8-1.1-2.8-.9-1-1.4-2.4-1-2.9.3-.6.1-1.1-.5-1.1s-.8-.5-.5-1c.3-.6.1-1-.5-1s-.8-.5-.5-1c.3-.5.1-1-.5-1s-.8-.5-.5-1c.3-.5.1-1-.5-1s-.9-.4-.5-.9c.3-.5 0-1.5-.7-2.3-1.3-1.4-1.9-3-2.2-6-.1-.9-.8-2.3-1.5-3.2-.7-.8-.9-2.1-.5-2.7.4-.8.3-.9-.4-.5-.8.5-1.2-.1-1.2-1.4 0-1.2-.7-2.8-1.5-3.6-1.8-1.9-2-3.8-.2-2.8.6.4.4-.2-.6-1.3-.9-1.1-1.4-2.3-1-2.6.3-.4.1-.7-.6-.7s-1-.4-.6-.9c.3-.5 0-1.3-.6-1.7-.8-.4-.7-.9.2-1.5 1-.6 1.1-.9.2-.9-.7 0-1.3-.7-1.3-1.5s-.6-1.5-1.2-1.5c-.9 0-.8-.4.2-1s1.1-1 .3-1c-.7 0-1.3-.8-1.3-1.8s-.6-2.4-1.2-3.1c-1.1-1.1-1-1.2.1-.6.9.5.7-.1-.4-1.9-1-1.4-1.4-2.6-1-2.6.4 0 .2-.7-.5-1.5-1-1.2-1-1.5.1-1.5 1.2 0 1.2-.2.1-.9-.8-.4-1.3-1.1-1.3-1.5.3-1.8 0-2.7-.7-2.2-.4.2-.8-.9-.8-2.5-.1-1.6.3-2.9.9-2.9.6 0 .4-.6-.5-1.3-2-1.6-3-4.5-1.7-5.2.5-.4.7-1.1.4-1.6-.4-.5.1-.9 1-.9 1 0 1.4.5 1 1.3-.4.6 0 .4.8-.6 1.1-1.4 1.6-1.5 2-.5.4 1 .6 1 .6-.1.1-1.1.4-1.1 1.8 0 1.1 1 1.4 1 .9.1-.4-.7-.1-1.2.8-1.2s1.6-.6 1.6-1.3c0-.9.2-.9.9.1.6 1.1 1 1 1.5-.4.6-1.6.8-1.6 1.6-.4.8 1.3 1 1.2 1-.3 0-.9.4-1.7 1-1.7.5 0 .7.8.4 1.7-.5 1.7-.5 1.7.6 0 .6-.9.8-2.2.4-2.9-.4-.7-.3-.8.4-.4s1.2.2 1.2-.4c0-.6.5-.8 1-.5.6.3 1.3-.1 1.6-.9.3-.9 1-1.3 1.5-1 .5.3.9 0 .9-.6s.5-.8 1-.5c.6.3 1-.1 1-.9 0-2.1 4.3-8.6 5.5-8.2 1.3.4 1.4 2.7.1 4.6-.9 1.3-.9 1.3.6.2 1.7-1.3 1.8-2.8.5-5-.5-.7-.3-1.2.5-1.2s.9-.3.3-.8c-1.5-1.1-1.7-3.2-.2-2.6.9.3 1.2-.6 1.2-3.2-.1-2.2.4-3.8 1.2-4.1.7-.3 1.3-.9 1.3-1.5 0-.5-.6-.6-1.2-.2-.7.4-.4-.3.7-1.6l2-2.3-2 .6c-2 .7-2 .7-.1-.8 1.4-1.1 1.6-1.5.5-1.5-.8 0-1-.3-.4-.8 1.9-1.3 1.7-3.5-.2-2.8-1.7.6-1.7.5 0-.8 1.4-1.1 1.5-1.5.3-1.9-.9-.4-1.3-1.7-1.2-3.6.1-1.7-.2-3.1-.8-3.1-.6 0-.5-.5.2-1.2s1.2-1.7 1.2-2.2c0-.7-.3-.7-.8 0-.5.9-1.1.8-2-.2-.8-.9-.9-1.4-.2-1.4.6 0 .8-.5.5-1-.4-.6-1.2-.7-1.8-.3-.7.4-.4-.6.7-2.2 1-1.7 1.3-2.4.5-1.8-1.8 1.7-2.9 1.6-2.9-.2 0-.8-.5-1.5-1.1-1.5-.8 0-.7-.5.1-1.5.7-.9 1-1.8.6-2.2-.3-.3-.6-.1-.6.5 0 .7-.7 1.2-1.6 1.2-1.4 0-1.5-.2-.3-1.7 1-1.1 1-1.4.2-.9-.7.4-1.3.2-1.3-.3 0-.6-.3-1-.7-1-2.1.3-3.3-.2-3.1-1.4.2-.6-.3-1.1-.9-.9-.7.1-1.3-.2-1.3-.8 0-.5-.7-1-1.6-1-.8 0-1.2-.5-.9-1 .6-.9-.8-1.4-2.7-1.1-.5 0-.8-.3-.8-.7 0-.5-.7-.9-1.5-1-.8-.1-2.2-.3-3-.4-.8-.1-1.1-.6-.8-1.1.4-.6 0-.8-1-.4-1 .3-1.7.2-1.7-.3 0-.6-.5-1-1.1-1-.5 0-.7.6-.4 1.2.4.7 0 .5-.8-.5-.8-.9-2-1.7-2.8-1.7-1.2 0-1.2.2 0 .9 1 .7.7.9-1.2.8-1.5-.1-2.7-.6-2.7-1.1 0-.5-.8-.2-1.7.5-1.1 1-1.4 1-.9.1 1.1-1.8-.5-1.4-2 .5-1.3 1.7-1.4 1.7-.8-.2.6-1.6.5-1.8-.7-.8-.7.7-1.8 1.3-2.3 1.3-.6 0-.4-.5.4-1.1 1.2-.8 1.2-1.2.2-1.6-1-.4-.9-.9.5-2 1-.8 1.3-1.2.6-.9-.6.4-1.4.2-1.8-.4-.3-.5 0-1 .7-1 1 0 1-.2-.1-.9-1-.6-1-1-.1-1.6.9-.6.9-1-.1-1.6-1.2-.7-1.2-.9 0-.9 1.1 0 1.1-.3 0-1.7-1-1.1-1-1.4-.1-.9.7.4 1.2.1 1.2-.9s-.5-1.3-1.2-.9c-.7.5-.8.3-.2-.7 1.2-1.9 1.2-3.3-.1-4.1-.6-.5-.5-.8.3-.8 1 0 1-.5.1-2.3-1.1-1.9-1-2 .2-1s1.4.8 1.4-1.1c-.1-1.2-.5-2.8-1-3.6-.5-.9-.4-1.5.3-1.8.7-.2 1.2-.8 1.2-1.3 0-.6-.4-.7-1-.4-.6.4-.7-.2-.2-1.7.4-1.3.7-3.2.7-4.3-.1-1.1.3-2.6.8-3.3.6-.7.6-1.2 0-1.2-.5 0-.9-.9-.9-2s.4-2 .7-2c.4 0 .6-1.2.3-2.6-.3-1.4-.1-2.3.5-2 1.2.8.9-2.7-.4-3.6-.5-.4-.1-.8 1-.8 1.3 0 1.6-.3.8-.8-1.2-.8-1.3-2.9 0-4.9.4-.6.1-1.4-.5-1.6-1-.4-1-.6 0-.6.6-.1 1.2-.8 1.2-1.6s-.6-1.5-1.2-1.5c-.9 0-.9-.3.1-.9.8-.5 1.5-2 1.5-3.3.1-1.2.6-2.9 1-3.7.7-1.1.6-1.2-.5-.6-1.1.7-1.2.6-.2-.7.7-.8 1-1.8.6-2.2-.4-.4-.1-1.1.7-1.6 1.3-.8 1.3-1 .1-1-1.1 0-1-.4.5-1.6 1-.8 1.4-1.3.7-1-.7.4-1.1-.1-1-1.4.1-1.1.6-2 1.2-2 .5 0 .3-.5-.5-1s-1-1-.4-1 1.1-.6 1.1-1.3c0-.6.4-2.8.8-4.7.4-1.9.7-4.3.7-5.3 0-.9.3-1.5.9-1.2.5.4.9.2.9-.4 0-.5-.5-1.3-1-1.6-.6-.4-.4-1.2.6-2.2 1.1-1.1 1.2-1.8.4-2.3-.8-.5-.6-.9.5-1.4 1.2-.4 1.4-1 .7-1.9-.7-.8-.6-1.8.3-3.1.8-1 1.1-2.4.8-3.2-.3-.8 0-1.4.6-1.4s1.1-.5 1.1-1.1c0-.5-.6-.7-1.2-.4-.7.4-.4-.1.6-.9 1.4-1.1 1.5-1.6.6-1.6-1.1 0-1.1-.3-.2-1.2.7-.7 1.2-2.3 1.2-3.6 0-1.3.4-2.1.9-1.8.5.4.8-.5.7-1.9-.2-1.4.3-3.6 1-5 1-1.9 1-2.4.1-1.8-.9.5-.9.3 0-.9.7-.8 1-1.8.6-2.1-.3-.4-.1-.7.5-.7s.9-1.1.6-2.6c-.4-2-.1-2.5.9-2.1 1.1.4 1.3 0 1-1.4-.3-1-.2-2.7.2-3.6.5-1 .7-2.1.7-2.6-.1-.4.2-.7.7-.7.6 0 .9-.9.8-2-.1-2.3-.3-2.4-1.2-1z"/><path d="M233.3 143.5c0 .8.4 1.2.9.9.5-.3.6-1 .3-1.5-.9-1.3-1.2-1.1-1.2.6zM208 144c-.9.6-1 1-.3 1 .6 0 1.5-.5 1.8-1 .8-1.2.4-1.2-1.5 0zM179.1 151.3c-.8 1-.7 1.4.2 1.4.8 0 1.4-.6 1.4-1.4 0-.7-.1-1.3-.2-1.3-.2 0-.8.6-1.4 1.3zM183 152c0 .5.5 1 1.1 1 .5 0 .7-.5.4-1-.3-.6-.8-1-1.1-1-.2 0-.4.4-.4 1zM177.6 156.2c.3.5 1 .6 1.5.3 1.3-.9 1.1-1.2-.6-1.2-.8 0-1.2.4-.9.9zM179 160c0 .5.5 1 1 1 .6 0 1-.5 1-1 0-.6-.4-1-1-1-.5 0-1 .4-1 1zM169.6 166.2c.3.5 1 .6 1.5.3 1.3-.9 1.1-1.2-.6-1.2-.8 0-1.2.4-.9.9zM167.4 175.4c.1.8.5 1.8.8 2.2.4.3.5-.1.4-1-.1-.8-.5-1.8-.8-2.2-.4-.3-.5.1-.4 1zM169.5 183.9c-.3.5-.2 1.2.3 1.5.5.3.9-.1.9-.9 0-1.7-.3-1.9-1.2-.6zM170 192c0 .5.5 1 1 1 .6 0 1-.5 1-1 0-.6-.4-1-1-1-.5 0-1 .4-1 1zM165.4 195.8c.4.3 1.4.7 2.2.8.9.1 1.3 0 1-.4-.4-.3-1.4-.7-2.2-.8-.9-.1-1.3 0-1 .4zM165.6 199.8c-.2.4-.1 1.4.4 2.2.7 1.1.9.9.7-.8-.1-2.4-.3-2.6-1.1-1.4zM375.6 200.2c.3.5 1 .6 1.5.3 1.3-.9 1.1-1.2-.6-1.2-.8 0-1.2.4-.9.9zM367 203.4c0 .2.7.7 1.6 1 .8.3 1.2.2.9-.4-.6-1-2.5-1.4-2.5-.6zM167 205.4c0 .2.7.7 1.6 1 .8.3 1.2.2.9-.4-.6-1-2.5-1.4-2.5-.6zM381.5 205.9c-.3.5-.2 1.2.3 1.5.5.3.9-.1.9-.9 0-1.7-.3-1.9-1.2-.6zM385.6 206.7c-.6 1.4-.5 1.5.5.6.7-.7 1-1.5.7-1.8-.3-.3-.9.2-1.2 1.2zM393.5 208.9c-.3.5-.2 1.2.3 1.5.5.3.9-.1.9-.9 0-1.7-.3-1.9-1.2-.6zM177.7 212.1c.4 1.3.8 1.8 1.1 1 .2-.7-.1-1.8-.6-2.3-.8-.8-.9-.4-.5 1.3zM175.3 211.7c.4.3.1 1.3-.6 2.2-1.1 1.4-1 1.4.5.2 1.6-1.2 1.6-3.1.1-3.1-.4 0-.3.3 0 .7zM399.5 216c.3.5.8 1 1.1 1 .2 0 .4-.5.4-1 0-.6-.5-1-1.1-1-.5 0-.7.4-.4 1zM178 218.4c0 .2.7.7 1.6 1 .8.3 1.2.2.9-.4-.6-1-2.5-1.4-2.5-.6zM405.6 221.9c-.3.5.2 1.5 1.2 2.2 1.5 1.2 1.6 1.2.5-.2-.7-.9-1-1.9-.6-2.2.3-.4.4-.7 0-.7-.3 0-.8.4-1.1.9zM409 229.9c0 .6.4 1.3 1 1.6.6.3.7-.1.4-.9-.7-1.8-1.4-2.1-1.4-.7zM409 234.1c0 .5.5.7 1 .4.6-.3 1-.8 1-1.1 0-.2-.4-.4-1-.4-.5 0-1 .5-1 1.1zM407.9 236.2c-.5.9-.5 4.8-.1 4.3.6-.6 1.1-4.5.5-4.5-.2 0-.4.1-.4.2zM410.7 244.1c.7.7 1.5 1 1.8.7.3-.3-.2-.9-1.2-1.2-1.4-.6-1.5-.5-.6.5zM414.6 244.2c.3.4.9.8 1.5.8.5 0 .9-.4.9-.8 0-.5-.7-.9-1.5-.9s-1.2.4-.9.9zM407 259c-.9.6-1 1-.3 1 .6 0 1.5-.5 1.8-1 .8-1.2.4-1.2-1.5 0zM407 270c0 .5.5 1 1.1 1 .5 0 .7-.5.4-1-.3-.6-.8-1-1.1-1-.2 0-.4.4-.4 1zM398.5 273.1c-1.1 1.6-.1 1.9 1.3.3.7-.8.8-1.4.3-1.4s-1.3.5-1.6 1.1zM400.6 275.9c-1.2 1.3-1.4 2.1-.6 2.6.6.4.9.1.8-.7-.2-.7.2-1.2.8-1.1.6.1 1.1-.5 1.1-1.3 0-1.8 0-1.8-2.1.5zM397.3 279.5c0 .8.3 1.3.5 1 .3-.3 1.2.1 2.1.7 1 .8.9.4-.3-1-2.3-2.6-2.3-2.6-2.3-.7zM391.3 285c.2 1.1 1 2.6 1.7 3.3 1.2 1 1.2.9.3-.3-.6-.8-.9-2.3-.8-3.3.2-.9-.1-1.7-.6-1.7s-.7.9-.6 2zM395.6 284.7c-.6 1.4-.5 1.5.5.6.7-.7 1-1.5.7-1.8-.3-.3-.9.2-1.2 1.2zM383.9 286.2c-.5 1.8-.6 3.8-.1 3.4.7-.8 1.2-3.6.6-3.6-.2 0-.4.1-.5.2zM375 290.4c.7.7 1.3.7 2 0 .6-.6.3-1-1-1s-1.6.4-1 1zM379.5 289.8c.3.3-.1 1.2-.7 2.1-.8 1-.4.9 1-.3 2.6-2.3 2.6-2.3.7-2.3-.8 0-1.3.3-1 .5zM372.3 298.5c0 .8.4 1.2.9.9.5-.3.6-1 .3-1.5-.9-1.3-1.2-1.1-1.2.6zM205 299.7c0 1.1-.3 1.4-.8.8-.9-1.3-9.4-1.6-8.6-.3.4.6-.2.6-1.3-.1-1.4-.7-2.3-.7-3.1.1-.9.9-1.2.8-1.2-.3-.1-1-.5-.9-1.5.5-1.2 1.6-1.5 1.7-1.5.4 0-1.1-.6-1.5-2-1.1-1.1.3-1.7 1-1.3 1.7.4.6 0 .5-.9-.2s-1.9-.9-2.2-.4c-.3.5-1.8.7-3.4.4-1.6-.2-3.3.1-3.6.7-.5.8-1.3.8-2.8 0-1.6-.9-1.9-.8-1.3.1.6 1 .1 1.2-1.9.8-1.4-.3-2.6-.1-2.6.4s-.4.7-.9.3c-.5-.3-1.3 0-1.7.6-.5.8-.9.8-1.4-.1-.6-1-1.2-.9-2.9.2-1.1.8-1.8 1.8-1.3 2.3.4.5 0 .4-.8-.1-1.9-1.1-6-1.3-5.4-.2.3.4-.6.9-2 .9-3.3.2-3.9.3-5.1 1-.5.4-2 .5-3.2.4-1.2-.1-2.5.5-2.8 1.3-.4 1.2-.8 1.2-2.2.1-.9-.8-1.4-.9-1-.3.4.8-.8 1.4-3.6 1.9-2.3.4-4.5.7-4.9.6-.5 0-.8.4-.8 1 0 .8-.6.7-1.7-.2-.9-.8-1.4-.9-1-.3.4.7-.1 1.8-1 2.5-1.2 1-1.4 1-.9.1.4-.6.2-1.2-.3-1.2-.6 0-1.1.5-1.1 1.1 0 .6-.9.8-2.1.4-1.5-.5-1.9-.4-1.5.4.5.7-.2 1.1-1.8 1.1-1.4 0-2.6.5-2.6 1.1 0 .5-.4.8-.8.5-.4-.2-2.6.4-4.9 1.4-2.3 1-4.4 1.6-4.7 1.3-.3-.3-1.3.2-2.2 1.1-.9 1-2.3 1.5-3.1 1.2-.8-.4-1.1-.1-.8.5.4.6.1 1-.6.8-2.6-.3-4 .1-3.4 1 .3.6-.4.8-1.5.6-1.1-.2-2 .1-2 .7 0 .5-.7.7-1.5.4-.9-.3-1.8.1-2.1.9-.4.8-1 1.3-1.4 1-.5-.3-1.6.2-2.4 1.1-.9.8-1.6 1.2-1.6.8 0-.3-.6-.2-1.2.3-.7.6-2.1.9-3.1.8-.9-.2-1.5 0-1.3.3.2.4-.2 1.2-.9 1.9-1.1 1-1.5 1-1.8 0-.3-.7-.6-.4-.6.6-.1 1-.6 1.5-1.2 1.2-.5-.4-2 .1-3.1 1.2-1.2 1-1.8 1.2-1.4.5.7-1.1.4-1.1-1.5 0-1.3.7-2.7 1.7-3 2.2-.4.5-1.4.6-2.2.3-1-.4-1.4-.1-1.1.6.3.8-.5 1.3-1.7 1.4-1.2.1-2.5.6-2.8 1.1-.7 1.1-5.2 2.7-6.4 2.4-.5-.1-.6.2-.2.8.3.5-.1 1-.9 1-.9 0-1.6.4-1.6 1 0 .5-.6.7-1.3.4-.7-.2-2.1.4-3.1 1.4-1.6 1.8-1.6 2 0 2.6 1.2.5 1.5.2 1-1-.5-1.3-.3-1.4.7-.6 1.4 1.2 3.4 1.1 5.4-.1 1.3-.8 1.7-.2 1.3 1.8-.1.5.7.1 1.8-.8 1.4-1.3 2.2-1.5 2.7-.7s1.1.8 2.1-.1c1.1-.9 1.4-.8 1.4.2 0 1.2.2 1.2.9.1.4-.8 1.2-1.4 1.6-1.4.4 0 1.2.6 1.6 1.4.7 1 .9.9.9-.5 0-.9.5-1.7 1.1-1.7.5 0 .7.4.4 1-.8 1.2-.8 1.2 3.3.1 2.2-.7 3-.6 2.6.1-.4.6.1.8 1.6.3 1.7-.5 2.1-.4 1.6.6-.4.8-.1.7.6-.3 1-1.2 1.9-1.3 3.1-.7 1.2.7 1.7.6 1.7-.3 0-.9.3-.9 1 .2s1 1.1 1 .2c0-1 .5-1 2-.2 1.1.6 2 .7 2 .2 0-1 8.4-.7 10 .3.6.4 1 0 1-.7.1-.8.6-.6 1.5.6.9 1.1 1.5 1.4 1.5.7 0-.8.7-1 2.1-.6 1.4.5 1.9.4 1.5-.4-.5-.7-.1-.9.8-.5.9.3 1.6 1 1.6 1.6 0 .5.5.6 1 .3.6-.4.8-1.1.5-1.6-.9-1.4.2-1.1 1.9.7 1 1 1.6 1.1 1.6.3s.5-.8 1.7.2c1.5 1.2 1.6 1.2.8-.1s-.7-1.3.8-.1c1.3 1 1.7 1 1.7.1 0-1 .3-1 1.5 0s1.5 1 1.5-.1c0-.9.3-1 .8-.3.4.6 3.2 1.1 6.4 1 3.1-.1 5.4.3 5.1.8-.3.4.4.5 1.5.2 1.1-.4 2.3-.3 2.6.2.6 1 3.6.9 5.4-.2.7-.4 1.2-.2 1.2.5s.3.9.7.6c.3-.4 1.3-.1 2.1.6 1.3 1 1.5.9.8-.7-.6-1.9-.6-1.9 1.2-.3 2.2 2 3.7 2.2 2.5.4-.4-.6.4-.5 1.9.5 2 1.3 2.8 1.4 3.8.5 1-.9 1.1-.9.6 0-.4.7-.3 1.3.1 1.3.5 0 1.5-.6 2.2-1.3 1.1-1 1.2-.9.6.2-.6 1-.4 1.3.7.8.9-.3 2.1 0 2.8.6 1 .9 1.1.9.5-.3-.8-1.3-.7-1.3 1 0 1 .8 2 1.4 2.2 1.2.1-.1.4-.2.6-.1 1.8.6 4.7.3 4.7-.5 0-.5.7-.1 1.5 1 .8 1 1.5 1.4 1.5.7s.7-1 1.5-.7c.8.4 1.3.9 1 1.3-.2.4.2.8 1 .8s1.1-.5.8-1c-.4-.6-.1-.7.8-.1.8.4 2.3 1 3.4 1.1 1.1.2 2.7.6 3.5.9.8.4 3.1.9 5 1.1 1.9.2 3.8.9 4.2 1.6.5.8.8.8.8.1 0-.6.6-1.1 1.4-1.1.8 0 1.2.6 1 1.2-.3.8.5 1 2.6.7 2.4-.3 3-.1 3 1.4 0 1.1.4 1.5.8.9 1.2-1.6 3.2-1.6 3.2 0 0 .8.5 1.5 1.1 1.5.6 0 .4.7-.5 1.5-.8.9-1.3 2.3-1 3.3.5 1.5.4 1.5-.6.2-.9-1.3-1.1-1.2-.8.5.3 1.2-.4 2.5-1.7 3.3-1.1.7-1.3 1.1-.5.9 1.2-.4 1.6.4 1.5 3.3 0 3-.3 3.6-1.3 2.8-.9-.8-1.1-.7-.6.6.3.9 1.1 1.6 1.7 1.6.6 0 .2.7-.9 1.6-1 .8-1.4 1.3-.7 1 .6-.4 1.4-.2 1.8.4.3.5.2 1-.2 1-.5 0-.9.9-1 2-.1 1.1.2 1.8.6 1.6.7-.5 1.1.9 1.2 4.7 0 1.3.5 1.7 1.7 1.3 1.3-.5 1.3-.3-.2.9-1.8 1.4-1.8 1.5-.2 1.5.9 0 1.4.5 1.1 1-.3.5-.1 1 .5 1 .7 0 1 .7.6 1.5-.3.8.3 1.9 1.2 2.5 1.5.8 1.5 1.1.2 2-1.2.9-1 1 1 .5 2.4-.6 2.5-.6.5 1-1.9 1.6-1.9 1.6 1 1 2.3-.5 2.6-.4 1.5.4-1.3.9-1.3 1.1.3 1.1 1.9 0 2.3 1.5.7 2.5-.5.3-1 .1-1-.6s-.3-1-.6-.6c-.3.3-.3 1.1.1 1.7.5.8 1.2.7 2.4-.4 1.9-1.8 3.1-1.2 3.1 1.5 0 1 .4 2.1 1 2.4.6.4.7-.1.3-1.2-.7-1.7-.6-1.7 1.1-.1.9 1 2.2 1.8 2.7 1.8s.9.5.9 1.1c0 .8-.5.8-1.5-.1-1.2-1-1.6-.9-2.1.4-.3.9-1 1.6-1.6 1.6-.5 0-.7-.4-.3-.9.3-.5-.4-1.6-1.6-2.4-1.3-.9-1.6-1.7-1-2.2.6-.3 1.1-1.1 1.1-1.7 0-.5-.9 0-2 1.3-1.6 2-2.1 2.2-2.9.9-.6-.8-1.3-1.1-1.7-.8-.4.4-1.4.3-2.3-.2-1-.5-2.3-.5-3.2.1-1.2.7-1.2.9.1 1 .8.1 2.1.1 2.7 0 .8-.1 1 .5.6 1.6-.5 1.5-.3 1.5 1.1-.2 1.5-1.8 1.5-1.8 1-.1-.6 1.5-.3 1.7 1.4 1.2 1.7-.6 2.1-.4 1.6.8-.6 1.6.5 2.1 3.6 1.6 1.2-.1 1.3.1.3 1.1-.7.7-1.3 1.8-1.3 2.4 0 .5.5.3 1-.5.7-1.1 1-1.1 1-.2 0 .7.5 1 1 .7.6-.3 1-.1 1 .5s.8 1 1.8.8c.9-.2 1.6.2 1.5.9-.4 1.6 3.9.1 4.5-1.6.3-1 0-1-1.6-.2-2 1.1-4.2-.2-2.8-1.6.3-.4.6 0 .6.7 0 .9.5.8 1.9-.4 1.9-1.7 2-1.7 3.1.3.6 1.2.7 2.1.2 2.1-.5 0-.9.7-.9 1.5s.4 1.5.9 1.5.6.6.2 1.2c-.6 1-.5 1 .8.1.8-.7 1.8-1 2.1-.6.4.3 1.3.1 2-.5.8-.7 1.6-1 1.9-.7.2.3.4-.4.3-1.5-.1-1.1-.5-2.3-1-2.7-.4-.5-.5-.2-.1.5.5.9.1 1.5-1.3 1.9-1.1.3-1.9.9-1.6 1.2.2.4-.1.8-.8.8-.7 0-1.3-1.3-1.4-2.9 0-1.5.3-2.8.8-2.8s.9.7.9 1.5.5 1.5 1.1 1.5c.7 0 .6-.9-.4-2.3-1.2-1.9-1.3-2.4-.2-2.4.8 0 1.3.5 1.2 1.1-.1.5 1.5 1 3.6 1 3.7 0 5 1.2 2.3 2.2-.8.3-1.6 1.5-1.9 2.6-.3 1.1-1 1.7-1.6 1.3-.6-.3-1.1-.1-1.1.4 0 .6.8 1.1 1.8 1.1s2.3.5 3 1.2c.9.9 1.1.6.7-1.1-.3-1.5 0-2.1.8-1.8.7.3 1.1 1 .9 1.6-.1.7.2 1 .8.6.5-.3 1-.1 1 .5s.8.4 1.7-.5c1.6-1.6 1.7-1.6 3 .1.7 1 1.3 1.2 1.3.6 0-.7.5-1.2 1.1-1.2.5 0 .7.5.3 1.2-.4.7-.3.8.4.4 1.2-.7.5-3.6-.9-3.6-.5 0-.8-.5-.6-1.2.1-.7-.2-1.2-.8-1.3-.5 0-1.6-.4-2.2-.8-.7-.5-1.3-.4-1.3 0 0 .5.9 1.4 2 2.1 1.1.7 2 1.7 2 2.4s-.7.5-1.7-.4-2.3-1.4-2.9-1.1c-.9.3-1-.4-.5-4.9.1-.4.8-.4 1.8-.1.9.4 1.4.2 1-.3-.3-.5.3-1 1.4-1 1.9 0 1.9.1.3 1.3-1 .7-1.3 1.3-.7 1.3.7 0 1.9-.8 2.9-1.7 1.9-1.9 4.4-2.6 4.4-1.2 0 .5.5.9 1.1.9.5 0 .7-.5.3-1.2-.5-.8-.2-.9.9-.5.9.3 1.6.3 1.6-.1-.3-1.9.2-2.5 1.1-1.2.8 1.3 1 1.3 1-.2 0-2.1 1.6-3.2 2.6-1.7.5.8.3.9-.6.4-.9-.5-1.1-.4-.6.4 1.1 1.6 2.6.3 1.9-1.6-.4-1.1-.3-1.4.6-.9 1.4.9 4.3-1.2 3.5-2.5-.3-.5.2-.9 1-.9.9 0 1.6-.5 1.6-1.1 0-.5.5-.7 1.2-.3.7.5.9.2.5-.8-.8-2.2.3-3 2-1.6 1.1.9 1.2.7.7-.7-.5-1.1-.1-2.2 1-3 1.5-1.2 2.6-3.9 2.8-7.3.1-.7.7-1.1 1.4-.8.7.3 1-.2.7-1.5-.3-1.1 0-1.9.6-1.9.7 0 .9.5.5 1.2-.5.9-.2.9.9-.1 1.2-.9 1.7-1 1.7-.2 0 .7.5.9 1.2.5s.8-.3.4.4-.1 1.2.8 1.2 1.6.5 1.6 1.1c0 .5.5.7 1 .4.6-.3 1.3.1 1.6 1 .6 1.3.8 1.4 1.5.3.7-1 .9-1 .9-.1 0 .7.7 1.3 1.6 1.3.9 0 1.2.5.8 1.2-.5.7-.2.9.9.5.9-.3 1.8 0 2.1.9.3.8 1.2 1.4 2.1 1.4.8 0 1.5.5 1.5 1.1 0 .5.4.8.9.4.5-.3 1.2-.1 1.6.5.4.6 1.1.7 1.7.4.6-.4.9-.3.6.2-.7 1 1.1 2.7 3.1 3.2.7.2 2.1 1.1 3 2 .9 1 1.4 1.3 1.1.7-.3-.6.2-.3 1.1.7.9.9 1.9 1.4 2.3 1.1.3-.4.6-.2.6.4 0 .5 1.2 1.5 2.6 2.1 1.5.7 2.2 1.7 1.8 2.4-.4.6-.3.8.3.5.6-.4 2.1.2 3.3 1.3 1.3 1.1 2.7 2 3.2 2s.6.4.3 1 .1.7.9.4c1.1-.4 1.6 0 1.6 1.2 0 .9.3 1.5.6 1.1.4-.3 1.2-.1 1.9.6s2.7 2.3 4.5 3.7c1.8 1.4 4.3 3.5 5.6 4.8 1.3 1.3 2.4 2 2.4 1.6 0-.3 2.1 1.5 4.7 4 2.5 2.5 5 4.6 5.5 4.6s.7.4.3.9c-.3.5.4 1.2 1.5 1.6 1.1.3 2.5 1.5 3 2.6.6 1 1.8 1.9 2.8 1.9 1.5 0 1.5.2.2 1-1 .7-1.1 1-.2 1 .7 0 2.7 1.6 4.5 3.5 1.7 1.9 3.8 3.5 4.6 3.5.7 0 1.1.6.8 1.4-.3.8.2 1.6 1.4 1.9 1 .3 1.9 1.3 1.9 2.2 0 .9.4 1.4.9 1 .5-.3 1.2.4 1.6 1.5.3 1.1 1.3 2 2.1 2s1.3.3 1.2.8c-.2.4 1.2 2.1 3 3.8 1.7 1.7 3.2 3.6 3.2 4.3 0 .6.7 1.1 1.6 1.1.8 0 1.2.4.9 1-.3.6.1.7 1 .3 1.3-.5 1.4-.7.3-1.4-1-.7-1-.9.2-.9 1.3 0 1.3-.1 0-1-.8-.5-1.1-1-.6-1 .5 0 .3-.7-.4-1.5s-1-2.1-.7-3c.4-.8-.1-1.9-1-2.3-1-.6-1.4-1.7-1-3.1.3-1.2 0-2.7-.6-3.4-.7-.6-1.3-1.9-1.4-2.7-.3-2.8-1.2-5.9-2.1-7.7-.5-1-.7-2.4-.5-3.1.3-.6 0-1.2-.7-1.2-.6 0-.9-.4-.5-.9.3-.5 0-1.3-.6-1.6-.5-.4-.8-1.3-.5-2.1.3-.8.1-1.4-.4-1.4-.6 0-1-.8-1-1.8s-.6-2.4-1.2-3.1c-1.1-1.1-1-1.2.1-.6.9.5.8 0-.3-1.7-.9-1.4-1.3-2.8-.9-3.1.3-.4.2-.7-.4-.7-.6 0-1.4-.7-1.7-1.6-.4-1-.2-1.3.6-.8 1.3.8.7-.4-2.6-5-1.1-1.6-1.5-2.6-.8-2.2 1.7 1 1.5 0-.4-1.8-.8-.9-1.7-2.4-1.9-3.5-.2-1.1-.8-2.8-1.4-3.9-.6-1.1-.7-2.3-.3-2.7.4-.5.2-.5-.4-.2-.6.3-1.8-1.5-2.8-4.3-1-2.8-2.2-4.8-2.6-4.5-.4.3-.8-.1-.7-.8.1-3.3-.4-4.8-1.4-4.1-.7.4-1 .1-.7-.7.3-.8-.1-2-.9-2.7-.7-.8-1.1-1.8-.8-2.3.4-.5-.1-.9-.9-.9-.9 0-1.6-.5-1.6-1.1 0-.5.6-.7 1.3-.4.6.4.3-.2-.8-1.2s-2.1-2.5-2.3-3.3c-.2-.8-.8-1.7-1.3-1.8-.5-.2-.9-1.2-.9-2.3 0-1-.4-1.9-.9-1.9s-1.6-1.5-2.5-3.4c-.8-1.8-2.2-3.9-3.1-4.6-.8-.7-1.5-1.9-1.5-2.6 0-.8-.4-1.4-1-1.4-.5 0-1-.7-1-1.6 0-.8-.4-1.3-.9-.9-.5.3-1.2-.3-1.6-1.4-.3-1-1.5-2.9-2.6-4.2-1.1-1.3-3.9-4.6-6.2-7.3-4.9-5.8-22.9-24.1-20.7-21.1.8 1.1-.5.1-2.8-2.3-2.3-2.3-4.7-4-5.1-3.7-.5.2-1.2-.2-1.5-1.1-.3-.8-1-1.3-1.5-.9-.5.3-1.2-.4-1.6-1.5-.4-1.1-1-1.8-1.5-1.5-.5.3-1.1.1-1.5-.5-.4-.6-1.1-.8-1.6-.5-.5.4-.9-.1-.9-1s-.4-1.4-.9-1c-.5.3-1.6-.2-2.4-1-.9-.8-2-1.5-2.5-1.5s-1.5-.7-2.2-1.5c-.7-.8-1.6-1.3-2-1-.5.3-1.2 0-1.5-.6-.4-.5-1.4-.8-2.3-.4-.9.3-1.3.3-.9-.1.9-.9-2.3-3.3-4.5-3.4-1 0-1.8-.5-1.8-1.1 0-.5-.4-.8-.9-.4-.5.3-1.3 0-1.7-.6-.4-.8-.9-.7-1.5.2-.7 1.1-.9 1.1-.9-.1 0-1-1.1-1.7-2.7-1.8-1.6-.1-2.9-.7-3.1-1.2-.2-.6-1.7-1-3.3-1-1.6 0-2.9-.4-2.9-.9 0-.6-.9-.8-2-.6-1.1.2-2-.1-2-.7s-.3-.8-.6-.5c-.4.3-1.5.2-2.5-.3-1.2-.7-1.9-.6-2.2.3-.4.9-.6.9-.6-.1-.1-.7-1.4-1.2-3.1-1.2-1.6 0-3-.5-3-1.1 0-.8-.5-.8-1.5.1-.8.7-1.5.8-1.5.3s-2.1-1-4.7-1.2c-2.6-.1-5.1-.8-5.5-1.4-.5-.8-.8-.8-.8-.1 0 .6-.7 1.1-1.5 1.1s-1.5-.4-1.5-.9-1-.4-2.1.3c-1.5.8-1.9.8-1.5 0 .9-1.4 0-1.4-2.4-.1-1.4.7-2 .6-2.4-.7-.5-1.2-.9-1.4-1.8-.5-1.6 1.6-3.1 1.5-2.2-.1.6-1 .4-1-.7 0-1.6 1.5-3.3 1.7-2.4.3.3-.6.1-1-.4-1-.6 0-1.1.8-1.1 1.7zm9 124.1c-2.1.7-2.3.6-2.6-1-.2-1.4.1-1.5 1.7-.5 1.1.7 1.5 1.3.9 1.5zm7.7.1c.9-.8 1.3-.8 1.3-.1 0 .6.8.9 1.8.7 1.1-.2 1.9.3 1.9 1.1 0 1-.4 1.1-1.3.3-.8-.7-1.4-.7-1.9.1-.4.6-1.3.9-2.1.6-.8-.3-1.7.1-2 .9-.5 1.1-1 1.2-2.3.3-1.7-1-1.7-1.2-.2-2.8.9-.9 2-1.3 2.5-.9.5.5 1.5.4 2.3-.2zm18.9 5.8c-.1 1.6.2 3.5.8 4.3.6.8-.2.4-1.7-.9-2.5-2.3-3.3-1.9-2.8 1.2.1.5-.3.6-.9.2-1.2-.7.5-4.5 2-4.5.6 0 1-.7 1-1.5s.4-1.5.9-1.5c.6 0 .9 1.2.7 2.7z"/><path d="M217.5 426c-.3.5-.2 1 .4 1 .5 0 1.3-.5 1.6-1 .3-.6.2-1-.4-1-.5 0-1.3.4-1.6 1zM198.6 372.2c.3.5 1 .6 1.5.3 1.3-.9 1.1-1.2-.6-1.2-.8 0-1.2.4-.9.9zM193.6 378.2c.3.4 1.1.5 1.9.1 2.1-.7 1.9-1.2-.4-1-1.1 0-1.8.5-1.5.9zM193.5 382c.3.5.8 1 1.1 1 .2 0 .4-.5.4-1 0-.6-.5-1-1.1-1-.5 0-.7.4-.4 1zM193.5 390c-.2.3.5.7 1.6.7 1 .1 1.9-.2 1.9-.6 0-.9-2.9-1-3.5-.1zM193.5 398c.3.5.8 1 1.1 1 .2 0 .4-.5.4-1 0-.6-.5-1-1.1-1-.5 0-.7.4-.4 1zM195.5 399.9c-.3.5-.2 1.2.3 1.5.5.3.9-.1.9-.9 0-1.7-.3-1.9-1.2-.6zM281 402.1c0 .5.5.7 1 .4.6-.3 1-.8 1-1.1 0-.2-.4-.4-1-.4-.5 0-1 .5-1 1.1zM277.6 404.7c-.6 1.4-.5 1.5.5.6.7-.7 1-1.5.7-1.8-.3-.3-.9.2-1.2 1.2zM199 406.1c0 .5.5.7 1 .4.6-.3 1-.8 1-1.1 0-.2-.4-.4-1-.4-.5 0-1 .5-1 1.1zM200.6 407.5c-1.1.8-1.5 1.5-.9 1.5s1.6-.7 2.3-1.5c1.6-1.9 1.1-1.9-1.4 0zM202.5 414c-.3.6.1.7.9.4 1.8-.7 2.1-1.4.7-1.4-.6 0-1.3.4-1.6 1zM197.8 415.2c-.7 1.7 1.5 1.9 2.9.3.4-.4.3-.5-.4-.2-.6.4-1.3.2-1.5-.5-.3-.8-.6-.6-1 .4zM205.3 416.7c0 .7.4 1.3.8 1.3s.9-.6 1.2-1.3c.3-.8 0-1.4-.7-1.4s-1.3.6-1.3 1.4zM274 415.8c0 .5.7.9 1.5.9s1.2-.4.9-.9c-.3-.4-.9-.8-1.5-.8-.5 0-.9.4-.9.8zM270.9 417.7c-1.3 1.6-1.2 1.7.4.4 1.6-1.3 2.1-2.1 1.3-2.1-.2 0-1 .8-1.7 1.7zM273.5 421.1c-.4.6-.5 1.2-.2 1.5.2.3.7-.2 1-1.1.7-1.7.1-2-.8-.4zM267.8 421.7c.7.3 1.6.2 1.9-.1.4-.3-.2-.6-1.3-.5-1.1 0-1.4.3-.6.6zM266.5 424c2.1 2.4 2.6 2.5 1.9.6-.3-.8-1.3-1.7-2.2-2.1-1.3-.5-1.3-.2.3 1.5zM259.5 425.9c-.3.5-.2 1.2.3 1.5.5.3.9-.1.9-.9 0-1.7-.3-1.9-1.2-.6zM262 425.5c0 .2.6.8 1.3 1.4 1 .8 1.4.7 1.4-.2 0-.8-.6-1.4-1.4-1.4-.7 0-1.3.1-1.3.2zM255.7 428.8c-1.4 1.5-1.4 1.9-.3 1.9.8 0 1.4-.5 1.3-1.1-.1-.6.4-1 1.1-.8.8.1 1.1-.2.7-.8-.8-1.3-.9-1.3-2.8.8zM251.7 428.7c-1 .9-.9 2.3.1 2.3.5 0 .9-.7.9-1.5 0-1.7-.1-1.8-1-.8zM261 430.1c0 .5.5.7 1 .4.6-.3 1-.8 1-1.1 0-.2-.4-.4-1-.4-.5 0-1 .5-1 1.1zM223.5 432.1c-.4.6-.5 1.2-.2 1.5.2.3.7-.2 1-1.1.7-1.7.1-2-.8-.4zM249.7 432.1c.7.7 1.5 1 1.8.7.3-.3-.2-.9-1.2-1.2-1.4-.6-1.5-.5-.6.5zM255.5 432.9c.6 1.1.4 1.3-.8.8-2.3-.9-2.1 0 .2 1.3 1.5.7 1.9.7 1.7-.5-.1-.8-.6-1.8-1.1-2.2-.4-.5-.5-.2 0 .6zM251.3 435.5c0 .8.4 1.2.9.9.5-.3.6-1 .3-1.5-.9-1.3-1.2-1.1-1.2.6zM261.5 435.1c-.4.6-.5 1.2-.2 1.5.2.3.7-.2 1-1.1.7-1.7.1-2-.8-.4z"/></svg>